Coordinates
version=1
nRows=12
nColumns=23
inDegrees=yes

Units are S.I. units (second, meters, Newtons, ...)
If the header above contains a line with 'inDegrees', this indicates whether rotational values are in degrees (yes) or radians (no).

endheader
time	pelvis_tilt	pelvis_list	pelvis_rotation	pelvis_tx	pelvis_ty	pelvis_tz	hip_flexion_r	hip_adduction_r	hip_rotation_r	knee_angle_r	knee_angle_r_beta	ankle_angle_r	subtalar_angle_r	mtp_angle_r	hip_flexion_l	hip_adduction_l	hip_rotation_l	knee_angle_l	knee_angle_l_beta	ankle_angle_l	subtalar_angle_l	mtp_angle_l
     22.50000000	     -5.91067664	     -4.59261006	      0.74658871	      2.11081269	      1.12055799	      1.05201853	     42.82700017	      5.26981589	     -8.87576210	     45.07990572	      0.78679278	     16.18919150	     -2.08395029	      0.00000000	    -22.56251107	     -4.77442547	    -12.82447252	     19.38751040	      0.33837589	    -20.75249018	      0.33084094	      0.00000000
     22.50666667	     -5.61919836	     -4.63808937	      0.59477376	      2.11252101	      1.12049869	      1.05247584	     41.38737629	      5.25080265	     -9.91857433	     41.25744745	      0.72007830	     16.56912089	      0.59727969	      0.00000000	    -22.91239833	     -5.03753035	    -13.65333427	     21.43856205	      0.37417349	    -20.46883343	     -1.07414997	      0.00000000
     22.51333333	     -5.43686448	     -4.68838975	      0.37550956	      2.11420339	      1.11983797	      1.05319746	     40.05723633	      5.43749352	    -10.65620967	     37.61808422	      0.65655943	     16.83944026	      2.97161138	      0.00000000	    -23.06450983	     -5.29099526	    -14.25942431	     23.70257816	      0.41368803	    -19.94895708	     -2.55989254	      0.00000000
     22.52000000	     -4.90053430	     -4.82043120	      0.36858270	      2.11603790	      1.11919937	      1.05353524	     38.35556842	      5.48195934	    -11.90208108	     34.33731875	      0.59929927	     17.25515046	      6.09619772	      0.00000000	    -23.52748348	     -5.72289214	    -14.69456821	     26.06304213	      0.45488590	    -19.33468650	     -3.35487588	      0.00000000
     22.52666667	     -4.57010684	     -4.95368481	      0.27212081	      2.11771683	      1.11790445	      1.05417939	     36.89604752	      5.81437577	    -12.45926846	     31.27225722	      0.54580385	     17.31585352	      8.09505647	      0.00000000	    -23.64455340	     -6.12217273	    -14.86452849	     28.67183239	      0.50041788	    -18.74139929	     -4.42892530	      0.00000000
     22.53333333	     -4.28304800	     -5.11371495	      0.17656938	      2.11931491	      1.11617720	      1.05483106	     35.54659097	      6.22778640	    -12.75192429	     28.59470684	      0.49907178	     17.22432228	      9.63332104	      0.00000000	    -23.59452059	     -6.53699095	    -14.81725923	     31.47610766	      0.54936171	    -18.27618132	     -5.39460643	      0.00000000
     22.54000000	     -4.05327596	     -5.20920944	      0.01798627	      2.12071945	      1.11390011	      1.05551017	     34.39379975	      6.61509806	    -12.75177742	     26.47253170	      0.46203284	     17.00527839	     10.75649913	      0.00000000	    -23.34129185	     -6.85251550	    -14.61546799	     34.50857174	      0.60228820	    -17.92283423	     -6.33505837	      0.00000000
     22.54666667	     -3.70636097	     -5.44033076	     -0.05876714	      2.12206942	      1.11141958	      1.05605681	     33.16655174	      7.06014290	    -12.80562999	     24.75091442	      0.43198495	     16.50349642	     11.41526193	      0.00000000	    -23.09290687	     -7.35082189	    -14.35569511	     37.71102318	      0.65818152	    -17.83368285	     -7.06621543	      0.00000000
     22.55333333	     -3.26862466	     -5.76199989	     -0.22818344	      2.12321851	      1.10863856	      1.05663894	     31.92795696	      7.67301778	    -12.46722316	     23.46618772	      0.40956224	     15.64417991	     11.07675216	      0.00000000	    -22.84321509	     -7.93747267	    -14.25273503	     41.09108356	      0.71717470	    -17.91685764	     -7.41259403	      0.00000000
     22.56000000	     -2.94246420	     -5.94585666	     -0.37785826	      2.12410543	      1.10523080	      1.05703731	     31.10794092	      7.92608822	    -12.57555179	     23.13134963	      0.40371821	     14.78613505	     10.98996102	      0.00000000	    -22.30607199	     -8.28560722	    -13.75384436	     44.62648868	      0.77887916	    -18.31274638	     -8.22639072	      0.00000000
     22.56666667	     -2.69352296	     -6.22136920	     -0.63492761	      2.12465915	      1.10139175	      1.05756223	     30.44166274	      8.40544778	    -12.12372662	     23.13792297	      0.40383294	     13.40293422	      9.38433029	      0.00000000	    -21.57723815	     -8.72851102	    -13.43555131	     48.33569952	      0.84361710	    -18.89567432	     -8.72569426	      0.00000000
     22.57333333	     -2.41760313	     -6.45682404	     -0.85133990	      2.12497518	      1.09710268	      1.05786701	     30.03305764	      8.59210102	    -12.33887308	     24.04467144	      0.41965868	     12.08383631	      8.27648513	      0.00000000	    -20.74850683	     -9.08188337	    -12.95091259	     52.13973361	      0.91001002	    -19.65429798	     -9.41213395	      0.00000000
